<?xml version="1.0" encoding="UTF-8" standalone="no"?>
<!-- Created with Inkscape (http://www.inkscape.org/) -->

<svg
   xmlns:dc="http://purl.org/dc/elements/1.1/"
   xmlns:cc="http://creativecommons.org/ns#"
   xmlns:rdf="http://www.w3.org/1999/02/22-rdf-syntax-ns#"
   xmlns:svg="http://www.w3.org/2000/svg"
   xmlns="http://www.w3.org/2000/svg"
   xmlns:xlink="http://www.w3.org/1999/xlink"
   xmlns:sodipodi="http://sodipodi.sourceforge.net/DTD/sodipodi-0.dtd"
   xmlns:inkscape="http://www.inkscape.org/namespaces/inkscape"
   width="1023.4547"
   height="200"
   id="svg7089"
   version="1.1"
   inkscape:version="0.48.2 r9819"
   sodipodi:docname="Logo_Intermarché.svg">
  <defs
     id="defs7091">
    <linearGradient
       id="linearGradient6755-2">
      <stop
         style="stop-color:#6b6b6d;stop-opacity:1;"
         offset="0"
         id="stop6757-7" />
      <stop
         style="stop-color:#231f20;stop-opacity:1;"
         offset="1"
         id="stop6759-6" />
    </linearGradient>
    <radialGradient
       r="149.9375"
       fy="964.5625"
       fx="872.73212"
       cy="964.5625"
       cx="872.73212"
       gradientTransform="matrix(3.0183629,0,0,0.15839159,-1949.3344,437.34855)"
       gradientUnits="userSpaceOnUse"
       id="radialGradient7087"
       xlink:href="#linearGradient6755-2"
       inkscape:collect="always" />
  </defs>
  <sodipodi:namedview
     id="base"
     pagecolor="#ffffff"
     bordercolor="#666666"
     borderopacity="1.0"
     inkscape:pageopacity="0.0"
     inkscape:pageshadow="2"
     inkscape:zoom="0.7"
     inkscape:cx="529.19542"
     inkscape:cy="68.155233"
     inkscape:document-units="px"
     inkscape:current-layer="layer1"
     showgrid="false"
     fit-margin-top="5"
     fit-margin-bottom="5"
     fit-margin-right="5"
     fit-margin-left="5"
     inkscape:window-width="1366"
     inkscape:window-height="706"
     inkscape:window-x="-8"
     inkscape:window-y="-8"
     inkscape:window-maximized="1" />
  <metadata
     id="metadata7094">
    <rdf:RDF>
      <cc:Work
         rdf:about="">
        <dc:format>image/svg+xml</dc:format>
        <dc:type
           rdf:resource="http://purl.org/dc/dcmitype/StillImage" />
        <dc:title />
      </cc:Work>
    </rdf:RDF>
  </metadata>
  <g
     inkscape:label="Calque 1"
     inkscape:groupmode="layer"
     id="layer1"
     transform="translate(246.01303,-420.93361)">
    <g
       id="g22575">
      <path
         style="fill:url(#radialGradient7087);fill-opacity:1;fill-rule:nonzero;stroke:none"
         d="m 177.43423,564.32061 28.44717,51.613 541.09624,0 6.36159,-51.613 z"
         id="path5469"
         inkscape:connector-curvature="0"
         sodipodi:nodetypes="ccccc" />
      <path
         inkscape:connector-curvature="0"
         d="m 493.49481,486.66284 -0.0131,0.0819 0.0131,-0.0819"
         style="fill:#bd0013;fill-opacity:1;fill-rule:nonzero;stroke:none"
         id="path5601" />
      <path
         inkscape:connector-curvature="0"
         d="m -145.23164,551.41691 9.57988,-68.12286 c 0.80684,-5.69616 -1.27763,-10.53724 -9.57988,-10.53724 -3.62781,0 -6.28745,0.51974 -8.46936,1.20846 l -10.89133,77.45164 -32.85477,0 12.36652,-87.82516 c 10.29069,-4.32301 25.19895,-7.08924 42.4884,-7.08924 31.46384,0 41.90652,11.7618 39.28217,30.42463 l -9.07166,64.48977 -32.84997,0"
         style="fill:#231f20;fill-opacity:1;fill-rule:nonzero;stroke:none"
         id="path5603" />
      <path
         inkscape:connector-curvature="0"
         id="path5605"
         d="m 711.45013,434.92755 -1.80047,12.18309 37.08945,0 c 4.88165,0 8.80975,-4.84273 9.8425,-12.18309 l -45.13148,0 z m 21.30543,21.36544 c -17.29955,0 -32.19386,2.74246 -42.49083,7.0818 l -5.04128,35.70908 -0.12012,0.06 -2.88074,21.36544 c -2.57105,18.19806 7.39005,29.79903 37.02941,30.36772 l 0,0.06 36.00916,0 0.66018,-4.38111 c 0.64552,-4.33694 -0.92855,-7.802 -6.06153,-7.802 l -26.28671,0 c -8.29482,0 -10.40326,-4.86651 -9.60244,-10.56268 l 1.14029,-7.862 10.26261,0 0,-0.18005 c 30.13978,-0.38195 43.50341,-11.88253 46.15171,-30.06764 l 0.5402,-3.36085 -0.18,0 0.18,-0.06 c 2.5844,-18.62705 -7.8956,-30.36773 -39.31001,-30.36773 z m -2.64068,16.26413 c 8.30395,0 10.40376,4.85763 9.60243,10.56269 l -0.48011,3.48089 -0.17997,0 -1.02025,6.96177 c -0.82822,5.67889 -4.32783,10.47147 -12.66324,10.44265 l -8.04204,0 0.42011,-3.30083 0.0599,0 3.84099,-26.94687 c 2.16557,-0.69592 4.83075,-1.2003 8.46215,-1.2003 z"
         style="fill:#ee1d23;fill-opacity:1;fill-rule:nonzero;stroke:none" />
      <path
         inkscape:connector-curvature="0"
         d="m 492.02084,520.88377 0.01,0 0,-0.0775 -0.01,0.0775"
         style="fill:#000000;fill-opacity:1;fill-rule:nonzero;stroke:none"
         id="path5607" />
      <path
         sodipodi:nodetypes="ccccccccc"
         inkscape:connector-curvature="0"
         d="m -204.72118,499.32414 0.30728,-2.2645 10.27533,-71.12603 -32.85525,0 -11.41322,77.84941 0.16037,0.296 -2.37925,17.73595 c -2.2933,16.27087 5.41002,27.26519 28.27128,29.81535 l 7.63346,-52.30618"
         style="fill:#231f20;fill-opacity:1;fill-rule:nonzero;stroke:none"
         id="path5609" />
      <path
         inkscape:connector-curvature="0"
         d="m 634.20686,456.50251 c -3.05741,0 -6.04665,0.0908 -8.94971,0.25518 l 4.30405,-30.82408 c -23.56487,2.5593 -34.43026,13.52169 -36.78262,29.79806 l -2.96213,21.36857 -10.4657,74.31666 32.85186,0 10.90672,-77.45163 c 2.17471,-0.68873 4.82787,-1.20846 8.46767,-1.20846 8.30371,0 10.38336,4.84106 9.57819,10.53724 l -9.58706,68.12285 32.8557,0 9.07361,-64.48976 c 2.62962,-18.66284 -7.82624,-30.42463 -39.29058,-30.42463"
         style="fill:#ee1d23;fill-opacity:1;fill-rule:nonzero;stroke:none"
         id="path5611" />
      <path
         sodipodi:nodetypes="cccccccccscccccscccccccccccc"
         inkscape:connector-curvature="0"
         d="m 461.1441,483.11511 -0.46381,3.50154 -0.1776,0 -1.04189,6.95 c -0.81429,5.68297 -4.30859,10.47506 -12.6308,10.45299 l -8.09487,0 0.47317,-3.27733 0.0591,0 3.82681,-26.95597 c 2.17495,-0.69785 4.84107,-1.21975 8.4679,-1.21975 8.30852,0 10.3877,4.84347 9.58205,10.54852 z m 31.82346,6.95193 0.51419,-3.32364 -0.18656,0 0.20029,-0.0819 c 2.58041,-18.63163 -7.88049,-30.34276 -39.29873,-30.34276 -17.28584,0 -32.18764,2.76142 -42.48936,7.08756 l -0.0271,0.19805 -0.0913,0 -12.36266,87.81123 32.85186,0 4.40033,-31.21707 8.4223,0 -0.0504,0.0169 18.45542,31.19978 32.84707,0 -21.66287,-36.38918 c 11.14771,-5.1061 16.8535,-13.77277 18.4775,-24.95939"
         style="fill:#ee1d23;fill-opacity:1;fill-rule:nonzero;stroke:none"
         id="path5613" />
      <path
         inkscape:connector-curvature="0"
         d="m 24.746735,483.10729 -0.46933,3.49505 -0.17126,0 -1.03252,6.95192 c -0.84263,5.67889 -4.31315,10.48875 -12.6404,10.45995 l -8.0759295,0 0.45565,-3.2814 0.0578,0 3.82826,-26.95837 c 2.16389,-0.69594 4.8343395,-1.2116 8.4580495,-1.2116 8.29844,0 10.3848,4.8394 9.58949,10.54445 z m -6.95675,-26.79563 c -17.28270952,0 -32.19291,2.75254 -42.48408,7.09189 l -5.0588,35.69612 -0.0931,0.0312 -2.8817,21.38848 c -2.5593,18.19807 7.36316,29.78702 36.9987005,30.35572 l -0.002,0.0622 36.0190095,0 0.65128,-4.32806 0,-0.0269 c 0.65466,-4.33646 -0.91559,-7.82912 -6.05435,-7.82912 l -26.2612195,0 c -8.30012002,0 -10.38648,-4.84803 -9.57798002,-10.5442 l 1.08173,-7.90929 10.30628952,0 0,-0.15124 c 30.12503,-0.38194 43.48659,-11.90175 46.12823,-30.08685 l 0.51732,-3.32149 -0.1768,0 0.18656,-0.091 c 2.58139,-18.62706 -7.87878,-30.33749 -39.29846,-30.33749"
         style="fill:#231f20;fill-opacity:1;fill-rule:nonzero;stroke:none"
         id="path5617" />
      <path
         sodipodi:nodetypes="csscccccsccccccccccccccc"
         inkscape:connector-curvature="0"
         d="m -41.996725,546.5816 c 0.64407,-4.33574 -0.91559,-7.35763 -6.06322,-7.35763 l -3.83476,0 c -8.30274,0 -10.3884,-4.82547 -9.59115,-10.53965 l 6.94953,-49.71185 0.0913,-0.64816 0.46645,-3.2814 8.79847,0 c 0.21059,-0.0869 0.47051,-0.13347 0.815,-0.13347 4.88358,0 8.79584,-4.85259 9.83099,-12.18574 l -17.72876,0 5.13823,-36.79009 c -23.5613,2.5593 -34.42573,13.52169 -36.78265,29.79735 l -2.77943,18.35146 -0.0238,0.0341 -0.23777,1.75725 -0.18631,1.22647 0.007,0.01 -6.12057,43.88773 c -2.55978,18.20048 7.32497,29.83311 36.99676,30.39341 l 0,0.0264 13.56706,0 0.68704,-4.81658 0,-0.0193"
         style="fill:#231f20;fill-opacity:1;fill-rule:nonzero;stroke:none"
         id="path5619" />
      <path
         inkscape:connector-curvature="0"
         d="m 261.64911,456.50251 c -10.90215,0 -20.86707,1.10428 -29.31196,2.99524 -5.851,-1.94881 -13.34114,-2.99524 -22.69849,-2.99524 -17.28535,0 -32.1994,2.76623 -42.4908,7.08924 l -9.08657,64.54115 13.33251,23.28401 16.24134,0 10.89927,-77.45164 c 2.17254,-0.68872 4.83962,-1.20846 8.47869,-1.20846 7.05999,0 9.60799,3.52146 9.72225,8.08261 l -9.94069,70.57749 33.05929,0 9.07766,-64.48977 c 0.18183,-1.3513 0.30034,-2.64668 0.34138,-3.9262 l 1.27376,-9.03567 c 2.17471,-0.68872 4.83676,-1.20846 8.4636,-1.20846 8.30371,0 10.38263,4.84108 9.58685,10.53724 l -9.58685,68.12286 32.86076,0 9.08174,-64.48977 c 2.61668,-18.66283 -7.83104,-30.42463 -39.30374,-30.42463"
         style="fill:#ee1d23;fill-opacity:1;fill-rule:nonzero;stroke:none"
         id="path5621" />
      <path
         sodipodi:nodetypes="cccccccccscccccccscccccccccscc"
         inkscape:connector-curvature="0"
         d="m 120.39981,483.11641 -0.46885,3.50153 -0.16441,0 -1.04161,6.95001 c -0.82894,5.68296 -4.31005,10.47506 -12.63801,10.45297 l -8.086695,0 0.45995,-3.27731 0.067,0 3.825595,-26.95597 c 2.17737,-0.69787 4.82983,-1.21975 8.46482,-1.21975 8.3025,0 10.39129,4.84347 9.58228,10.54852 z m 13.34117,31.91131 c 11.14028,-5.10608 16.85442,-13.77277 18.47845,-24.95938 l 0.513,-3.32365 -0.18235,0 0.19607,-0.0819 -0.0133,0.0819 c 2.62306,-18.6671 -7.81432,-30.42482 -39.28297,-30.42482 -17.294285,0 -32.199405,2.76143 -42.497335,7.08757 l -0.0159,0.19805 -0.10425,0 -12.34584,87.81122 32.84562,0 4.3905,-31.21706 8.435745,0 -0.0449,0.0169 62.08485,84.38795 c 4.07863,5.53701 9.2174,9.65766 15.81593,9.65766 l 8.77805,0 -57.04976,-99.23501"
         style="fill:#231f20;fill-opacity:1;fill-rule:nonzero;stroke:none"
         id="path5619-1" />
      <path
         sodipodi:nodetypes="cccsccccscccccscccccscc"
         inkscape:connector-curvature="0"
         d="m 571.36104,539.25087 0.76891,-5.62511 c -7.91697,1.81245 -17.1627,2.92777 -27.31416,3.0927 -0.79171,0.0574 -1.64754,0.0886 -2.5528,0.0886 -8.29003,0 -10.37376,-4.84371 -9.58205,-10.54923 l 2.70262,-20.16201 0.80062,-5.74515 2.92586,-20.16009 c 0.78692,-5.70578 4.22244,-10.5574 12.53095,-10.5574 0.90527,0 1.72436,0.0376 2.52494,0.0973 10.8203,0.1695 19.29732,1.03995 26.35921,2.85289 l 0.78691,-5.79654 0,-0.0169 c 0.6597,-4.81419 1.16478,-8.74446 -5.40065,-9.96661 -6.37964,-1.06852 -13.81455,-1.57913 -22.65527,-1.57913 -31.41849,0 -45.13702,11.7193 -47.73498,30.33724 l 0.10925,0.0605 -0.12325,0.0305 -4.90901,35.23016 0.01,0 c -2.5845,18.61579 7.87616,30.34157 39.28095,30.34157 8.9178,0 17.17206,-0.75019 24.50665,-2.04796 3.54882,-0.85726 5.96982,-2.45271 6.96632,-9.92653"
         style="fill:#ee1d23;fill-opacity:1;fill-rule:nonzero;stroke:none"
         id="path5613-4" />
      <path
         sodipodi:nodetypes="ccsccccccccccscscccccccsccccc"
         inkscape:connector-curvature="0"
         d="m 359.5399,509.57474 -3.82224,26.95646 c -2.1836,0.70217 -4.84587,1.21758 -8.46767,1.21758 -8.30371,0 -10.3973,-4.83867 -9.59188,-10.54444 l 0.47389,-3.50825 0.17259,0 1.04642,-6.94689 c 0.82342,-5.67 4.30479,-10.48899 12.6265,-10.4513 l 8.0675,0 -0.45491,3.27684 z m -1.07835,-52.92579 0.0133,-0.0557 -28.02832,0 c -4.87782,0 -8.7949,4.84371 -9.8233,12.18646 l 33.47963,0 c 8.31259,0 10.40618,5.15868 9.60052,10.87741 l -1.43795,10.45587 -10.91992,0 0,0.0598 c -29.68488,0.54183 -42.87576,12.01723 -45.50562,30.06671 l -0.50509,3.33301 c -0.005,0.0303 -0.01,0.0605 -0.0132,0.0907 -2.58856,18.61818 7.8673,30.33076 39.29055,30.33076 17.29066,0 32.19654,-2.76359 42.49324,-7.08277 l 5.04609,-35.70331 0.109,-0.0307 3.18991,-23.83014 c 2.57084,-18.19591 -7.35281,-30.11783 -36.98788,-30.69806"
         style="fill:#ee1d23;fill-opacity:1;fill-rule:nonzero;stroke:none"
         id="path5615" />
    </g>
  </g>
</svg>
